<svg 
          width="22.079999923706055" 
          height="21.119998931884766" fill="none" 
          xmlns="http://www.w3.org/2000/svg">
          <path d="M 11.039999961853027 0 C 9.980625079954448 0 9.119999968487283 0.8606250709159751 9.119999968487283 1.919999902898615 C 9.119999968487283 2.812499857761643 9.734999966362249 3.556874705674979 10.559999963511592 3.7724998092109505 L 10.559999963511592 5.279999732971191 L 6.254999978386838 5.279999732971191 C 4.128750214615593 5.279999732971191 2.3999999917071797 7.008749874423839 2.3999999917071797 9.134999538009817 L 2.3999999917071797 11.039999441667037 L 0 11.039999441667037 L 0 16.799999150362883 L 2.3999999917071797 16.799999150362883 L 2.3999999917071797 21.119998931884766 L 19.679999931998875 21.119998931884766 L 19.679999931998875 16.799999150362883 L 22.079999923706055 16.799999150362883 L 22.079999923706055 11.039999441667037 L 19.679999931998875 11.039999441667037 L 19.679999931998875 9.134999538009817 C 19.679999931998875 7.008749874423839 17.95125016685413 5.279999732971191 15.824999945319217 5.279999732971191 L 11.519999960194463 5.279999732971191 L 11.519999960194463 3.7724998092109505 C 12.34687484289641 3.556874705674979 12.959999955218771 2.812499857761643 12.959999955218771 1.919999902898615 C 12.959999955218771 0.8606250709159751 12.099374843751606 0 11.039999961853027 0 Z M 11.039999961853027 0.9599999514493075 C 11.56875018890785 0.9599999514493075 11.999999958535899 1.3912501585212504 11.999999958535899 1.919999902898615 C 11.999999958535899 2.448750105039628 11.56875018890785 2.8799998543479224 11.039999961853027 2.8799998543479224 C 10.511250192561874 2.8799998543479224 10.079999965170156 2.448750105039628 10.079999965170156 1.919999902898615 C 10.079999965170156 1.3912501585212504 10.511250192561874 0.9599999514493075 11.039999961853027 0.9599999514493075 Z M 6.254999978386838 6.239999684420499 L 15.824999945319217 6.239999684420499 C 17.420625054246706 6.239999684420499 18.719999935316004 7.539374504265465 18.719999935316004 9.134999538009817 L 18.719999935316004 20.159998980435457 L 15.839999945267387 20.159998980435457 L 15.839999945267387 16.319999174638227 L 6.239999978438668 16.319999174638227 L 6.239999978438668 20.159998980435457 L 3.3599999883900518 20.159998980435457 L 3.3599999883900518 9.134999538009817 C 3.3599999883900518 7.539374504265465 4.65937486945935 6.239999684420499 6.254999978386838 6.239999684420499 Z M 7.919999972633693 9.119999538768422 C 6.729374862306792 9.119999538768422 5.7599999800972315 10.08937437530269 5.7599999800972315 11.279999429529363 C 5.7599999800972315 12.470624483756037 6.729374862306792 13.439999320290305 7.919999972633693 13.439999320290305 C 9.110625082960595 13.439999320290305 10.079999965170156 12.470624483756037 10.079999965170156 11.279999429529363 C 10.079999965170156 10.08937437530269 9.110625082960595 9.119999538768422 7.919999972633693 9.119999538768422 Z M 14.159999951072361 9.119999538768422 C 12.96937484074546 9.119999538768422 11.999999958535899 10.08937437530269 11.999999958535899 11.279999429529363 C 11.999999958535899 12.470624483756037 12.96937484074546 13.439999320290305 14.159999951072361 13.439999320290305 C 15.350625061399263 13.439999320290305 16.319999943608824 12.470624483756037 16.319999943608824 11.279999429529363 C 16.319999943608824 10.08937437530269 15.350625061399263 9.119999538768422 14.159999951072361 9.119999538768422 Z M 7.919999972633693 10.079999490217729 C 8.581874855905772 10.079999490217729 9.119999968487283 10.618124577443702 9.119999968487283 11.279999429529363 C 9.119999968487283 11.941874281615025 8.581874855905772 12.479999368840998 7.919999972633693 12.479999368840998 C 7.258125089361616 12.479999368840998 6.7199999767801035 11.941874281615025 6.7199999767801035 11.279999429529363 C 6.7199999767801035 10.618124577443702 7.258125089361616 10.079999490217729 7.919999972633693 10.079999490217729 Z M 14.159999951072361 10.079999490217729 C 14.82187483434444 10.079999490217729 15.359999946925951 10.618124577443702 15.359999946925951 11.279999429529363 C 15.359999946925951 11.941874281615025 14.82187483434444 12.479999368840998 14.159999951072361 12.479999368840998 C 13.498125067800283 12.479999368840998 12.959999955218771 11.941874281615025 12.959999955218771 11.279999429529363 C 12.959999955218771 10.618124577443702 13.498125067800283 10.079999490217729 14.159999951072361 10.079999490217729 Z M 0.959999996682872 11.999999393116344 L 2.3999999917071797 11.999999393116344 L 2.3999999917071797 15.839999198913574 L 0.959999996682872 15.839999198913574 L 0.959999996682872 11.999999393116344 Z M 19.679999931998875 11.999999393116344 L 21.119999927023184 11.999999393116344 L 21.119999927023184 15.839999198913574 L 19.679999931998875 15.839999198913574 L 19.679999931998875 11.999999393116344 Z M 7.19999997512154 17.279999126087535 L 9.119999968487283 17.279999126087535 L 9.119999968487283 20.159998980435457 L 7.19999997512154 20.159998980435457 L 7.19999997512154 17.279999126087535 Z M 10.079999965170156 17.279999126087535 L 11.999999958535899 17.279999126087535 L 11.999999958535899 20.159998980435457 L 10.079999965170156 20.159998980435457 L 10.079999965170156 17.279999126087535 Z M 12.959999955218771 17.279999126087535 L 14.879999948584516 17.279999126087535 L 14.879999948584516 20.159998980435457 L 12.959999955218771 20.159998980435457 L 12.959999955218771 17.279999126087535 Z" fill="rgb(0,112.000000923872,240.00000089406967)"/>
        </svg>